/* XPM */
static char *coin1[] = {
/* columns rows colors chars-per-pixel */
"64 64 227 2 ",
"   c #000000",
".  c #000100",
"X  c #000001",
"o  c #000101",
"O  c #010101",
"+  c #010201",
"@  c #010301",
"#  c #020201",
"$  c #020301",
"%  c #000002",
"&  c #000003",
"*  c #010202",
"=  c #010302",
"-  c #020202",
";  c #020302",
":  c #030302",
">  c #020303",
",  c #040301",
"<  c #020402",
"1  c #030402",
"2  c #030503",
"3  c #040401",
"4  c #050401",
"5  c #040501",
"6  c #060501",
"7  c #040402",
"8  c #050402",
"9  c #040502",
"0  c #050502",
"q  c #060502",
"w  c #050602",
"e  c #060702",
"r  c #070603",
"t  c #070704",
"y  c #060605",
"u  c #070705",
"i  c #080703",
"p  c #090703",
"a  c #080706",
"s  c #0B0A03",
"d  c #0C0803",
"f  c #080805",
"g  c #0A0804",
"h  c #0B0804",
"j  c #0B0B04",
"k  c #0B0B05",
"l  c #080806",
"z  c #090806",
"x  c #090907",
"c  c #070808",
"v  c #2D1A07",
"b  c #2B240A",
"n  c #2E290C",
"m  c #3C2508",
"M  c #3B2F0C",
"N  c #3B320E",
"B  c #2C2B15",
"V  c #3B3717",
"C  c #402106",
"Z  c #412407",
"A  c #582C06",
"S  c #582D06",
"D  c #5F3105",
"F  c #413C14",
"G  c #413D15",
"H  c #613105",
"J  c #595117",
"K  c #585118",
"L  c #74400B",
"P  c #60571A",
"I  c #61591A",
"U  c #735F14",
"Y  c #756110",
"T  c #77712C",
"R  c #404140",
"E  c #414141",
"W  c #894F0A",
"Q  c #8A4D0F",
"!  c #8E730F",
"~  c #C66F07",
"^  c #C77008",
"/  c #CB7208",
"(  c #CD7208",
")  c #C67D0A",
"_  c #C87C09",
"`  c #DB7A07",
"'  c #DE7C07",
"]  c #918933",
"[  c #D68F0A",
"{  c #D99D0A",
"}  c #E48807",
"|  c #F78D07",
" . c #E79906",
".. c #E89805",
"X. c #E89A06",
"o. c #E99F07",
"O. c #EB9F09",
"+. c #F59704",
"@. c #F69804",
"#. c #DBB00B",
"$. c #EDA303",
"%. c #ECA702",
"&. c #EEA705",
"*. c #EEA407",
"=. c #EDA905",
"-. c #EDAB06",
";. c #EEAA07",
":. c #FFA004",
">. c #FFA304",
",. c #F0AD03",
"<. c #F1A906",
"1. c #F3AB06",
"2. c #F2AA07",
"3. c #F3AC07",
"4. c #FAAE05",
"5. c #F8AF07",
"6. c #EFB003",
"7. c #EFB305",
"8. c #EFB306",
"9. c #EFBB00",
"0. c #EEBC00",
"q. c #EEBD02",
"w. c #EDBB07",
"e. c #EFBE04",
"r. c #EFBF04",
"t. c #EEBF0C",
"y. c #F0B203",
"u. c #F1B507",
"i. c #F0B800",
"p. c #F3BE00",
"a. c #F0B807",
"s. c #F1B807",
"d. c #F3BD05",
"f. c #F1BF05",
"g. c #F3BD06",
"h. c #FCBC06",
"j. c #EDB211",
"k. c #CFBA2B",
"l. c #D0BC29",
"z. c #EFC004",
"x. c #EFC105",
"c. c #EFC606",
"v. c #EFC309",
"b. c #F3C000",
"n. c #F1C003",
"m. c #F1C103",
"M. c #F2C002",
"N. c #F2C003",
"B. c #F3C103",
"V. c #F5C302",
"C. c #F1C005",
"Z. c #F3C104",
"A. c #F2C105",
"S. c #F3C105",
"D. c #F1C305",
"F. c #F3C204",
"G. c #F2C305",
"H. c #F1C306",
"J. c #F3C306",
"K. c #F4C104",
"L. c #F4C204",
"P. c #F4C304",
"I. c #F4C205",
"U. c #F5C305",
"Y. c #F4C306",
"T. c #F1C505",
"R. c #F3C405",
"E. c #F1C407",
"W. c #F4C504",
"Q. c #F5C505",
"!. c #F6C404",
"~. c #F4C604",
"^. c #F5C605",
"/. c #F4C705",
"(. c #F5C705",
"). c #F5C406",
"_. c #F4C506",
"`. c #F5C506",
"'. c #F5C507",
"]. c #F2C906",
"[. c #F4C805",
"{. c #F6CA04",
"}. c #F4C807",
"|. c #F5CA07",
" X c #FECE02",
".X c #FECB04",
"XX c #F3C408",
"oX c #F0C10C",
"OX c #F3C908",
"+X c #F1C80E",
"@X c #F6CB0C",
"#X c #FFCD0A",
"$X c #FFCF0D",
"%X c #FED30B",
"&X c #FFD30E",
"*X c #F0C016",
"=X c #F4CB11",
"-X c #F3C61B",
";X c #F4CD1B",
":X c #F4CE1B",
">X c #F6D012",
",X c #F4D015",
"<X c #FFDA14",
"1X c #F7D319",
"2X c #F5D21B",
"3X c #F5D31B",
"4X c #F5D41C",
"5X c #F9D618",
"6X c #F9D61A",
"7X c #F6D81B",
"8X c #F9D819",
"9X c #DDC223",
"0X c #D7C736",
"qX c #DAC935",
"wX c #D6C939",
"eX c #DCCB39",
"rX c #E8C923",
"tX c #F6D920",
"yX c #F6DD24",
"uX c #EAD93B",
"iX c #F1DA34",
"pX c #FFE72D",
"aX c #FFE92E",
"sX c #FFF42D",
"dX c #FFF42E",
"fX c #FFF038",
"gX c #949594",
/* pixels */
"* * * * * * * * * * * * * * * * * * * * * * * * * * * * * * * * * * * * * * * * * * * * * * * * * * * * * * * * * * * * * * * * ",
"* * * * * * * * * * * * * * * * * * * * * * * * * * * * * * * * * * * * * * * * * * * * * * * * * * * * * * * * * * * * * * * * ",
"* * * * * * * * * * * * * * * * * * * * * * * * * * * * * * * * * * * * * * * * * * * * * * * * * * * * * * * * * * * * * * * * ",
"* * * * * * * * * * * * * * * * * * * * * * * * * * * * * * * * * * * * * * * * * * * * * * * * * * * * * * * * * * * * * * * * ",
"* * * * * * * * * * * * * * * * * * * * * * * * * * * * * * * * * * * * * * * * * * * * * * * * * * * * * * * * * * * * * * * * ",
"* * * * * * * * * * * * * * * * * * * * * * * * * * * * * * * * * * * * * * * * * * * * * * * * * * * * * * * * * * * * * * * * ",
"* * * * * * * * * * * * * * * * * * * * * * * * * * * * * * * * * * * * * * * * * * * * * * * * * * * * * * * * * * * * * * * * ",
"* * * * * * * * * * * * * * * * * * * * * * * * * * * * * * * * * * * * * * * * * * * * * * * * * * * * * * * * * * * * * * * * ",
"* * * * * * * * * * * * * * * * * * * * * * * * * * * * * * * * * * * * * * * * * * * * * * * * * * * * * * * * * * * * * * * * ",
"* * * * * * * * * * * * * * * * * * * * * * * * * * * * * * * * * * * * * * * * * * * * * * * * * * * * * * * * * * * * * * * * ",
"* * * * * * * * * * * * * * * * * * * * * * * * * * * * * * * * * * * * * * * * * * * * * * * * * * * * * * * * * * * * * * * * ",
"* * * * * * * * * * * * * * * * * * * * * * * * * * * * * * * * * * * * * * * * * * * * * * * * * * * * * * * * * * * * * * * * ",
"* * * * * * * * * * * * * * * * * * * * * * * * * * * * * * * * * * * * * * * * * * * * * * * * * * * * * * * * * * * * * * * * ",
"* * * * * * * * * * * * * * * * * * * * * * * * * * * * * * * * * * * * * * * * * * * * * * * * * * * * * * * * * * * * * * * * ",
"* * * * * * * * * * * * * * * * * * * * * * * * * * * * * * * * * * * * * * * * * * * * * * * * * * * * * * * * * * * * * * * * ",
"* * * * * * * * * * * * * * * * * * * * * * * * * * * * * * * * * * * * * * * * * * * * * * * * * * * * * * * * * * * * * * * * ",
"* * * * * * * * * * * * * * * * * * * * * * * * * * * * * * * * * * * * * * * * * * * * * * * * * * * * * * * * * * * * * * * * ",
"* * * * * * * * * * * * * * * * * * * * * * * * * * * * * * * * * * * * * * * * * * * * * * * * * * * * * * * * * * * * * * * * ",
"* * * * * * * * * * * * * * * * * * * * * * * * * * * * * * * * * * * * * * * * * * * * * * * * * * * * * * * * * * * * * * * * ",
"* * * * * * * * * * * * * * * * * * * * * * * * * * * * * * * * * * * * * * * * * * * * * * * * * * * * * * * * * * * * * * * * ",
"* * * * * * * * * * * * * * * * * * * * * * * * * * * * * * * * * * * * * * * * * * * * * * * * * * * * * * * * * * * * * * * * ",
"* * * * * * * * * * * * * * * * * * * * * * * * * * * * * * * * * * * * * * * * * * * * * * * * * * * * * * * * * * * * * * * * ",
"* * * * * * * * * * * * * * * * * * * * * * * * * * * * * * * * * * * * * * * * * * * * * * * * * * * * * * * * * * * * * * * * ",
"* * * * * * * * * * * * * * * * * * * * * * * * * * * * * * * * * * * * * * * * * * * * * * * * * * * * * * * * * * * * * * * * ",
"* * * * * * * * * * * * * * * * * * * * * * * * * * * * * F I J K I F * * * * * * * * * * * * * * * * * * * * * * * * * * * * * ",
"* * * * * * * * * * * * * * * * * * * * * * * * * * * k B k.sXaXaXsXl.b k * * * * * * * * * * * * * * * * * * * * * * * * * * * ",
"* * * * * * * * * * * * * * * * * * * * * * * * * * * V fX+X9.n.n.9.n.$XN * * * * * * * * * * * * * * * * * * * * * * * * * * * ",
"* * * * * * * * * * * * * * * * * * * * * * * * * * T iXv.n.n.n.n.n.n.p.XXY * * * * * * * * * * * * * * * * * * * * * * * * * * ",
"* * * * * * * * * * * * * * * * * * * * * * * * k ] 9X&Xn.n.=XyX*Xu.n.n..X{ W a * * * * * * * * * * * * * * * * * * * * * * * * ",
"* * * * * * * * * * * * * * * * * * * * * * * * a uX<X9.n.p.2XyX%.%.|.n.n.5.' a * * * * * * * * * * * * * * * * * * * * * * * * ",
"* * * * * * * * * * * * * * * * * * * * * * * * a 0X5Xn.n.+X,X,Xu.u.p.n.n.,.~ a * * * * * * * * * * * * * * * * * * * * * * * * ",
"* * * * * * * * * * * * * * * * * * * * * * * * k eX6Xn.n.j.*.a.p... .n.n.,./ k * * * * * * * * * * * * * * * * * * * * * * * * ",
"* * * * * * * * * * * * * * * * * * * * * * * * a qX6Xn.n.p.-X2X%.*.n.n.|.,./ k * * * * * * * * * * * * * * * * * * * * * * * * ",
"* * * * * * * * * * * * * * * * * * * * * * * * * wX8Xn.n.n.2X7X,.%.|.n.n.,.^ * * * * * * * * * * * * * * * * * * * * * * * * * ",
"* * * * * * * * * * * * * * * * * * * * * * * * k rX&X9.n.n.:X:X$.;.+Xn.|.5.' a * * * * * * * * * * * * * * * * * * * * * * * * ",
"* * * * * * * * * * * * * * * * * * * * * * * * a ! #..Xn.n.p.$...u.|.XXh.[ W a * * * * * * * * * * * * * * * * * * * * * * * * ",
"* * * * * * * * * * * * * * * * * * * * * * * * * * U v.z.n.n.n.n.n.n.w.} L * * * * * * * * * * * * * * * * * * * * * * * * * * ",
"* * * * * * * * * * * * * * * * * * * * * * * * * * * N $Xn.z.n.n.n.7.| m * * * * * * * * * * * * * * * * * * * * * * * * * * * ",
"* * * * * * * * * * * * * * * * * * * * * * * * * * * k n ) :.+.@.:._ v k * * * * * * * * * * * * * * * * * * * * * * * * * * * ",
"* * * * * * * * * * * * * * * * * * * * * * * * * * * * * C H A A H C * * * * * * * * * * * * * * * * * * * * * * * * * * * * * ",
"* * * * * * * * * * * * * * * * * * * * * * * * * * * * * * * * * * * * * * * * * * * * * * * * * * * * * * * * * * * * * * * * ",
"* * * * * * * * * * * * * * * * * * * * * * * * * * * * * * * * * * * * * * * * * * * * * * * * * * * * * * * * * * * * * * * * ",
"* * * * * * * * * * * * * * * * * * * * * * * * * * * * * * * * * * * * * * * * * * * * * * * * * * * * * * * * * * * * * * * * ",
"* * * * * * * * * * * * * * * * * * * * * * * * * * * * * * * * * * * * * * * * * * * * * * * * * * * * * * * * * * * * * * * * ",
"* * * * * * * * * * * * * * * * * * * * * * * * * * * * * * * * * * * * * * * * * * * * * * * * * * * * * * * * * * * * * * * * ",
"* * * * * * * * * * * * * * * * * * * * * * * * * * * * * * * * * * * * * * * * * * * * * * * * * * * * * * * * * * * * * * * * ",
"* * * * * * * * * * * * * * * * * * * * * * * * * * * * * * * * * * * * * * * * * * * * * * * * * * * * * * * * * * * * * * * * ",
"* * * * * * * * * * * * * * * * * * * * * * * * * * * * * * * * * * * * * * * * * * * * * * * * * * * * * * * * * * * * * * * * ",
"* * * * * * * * * * * * * * * * * * * * * * * * * * * * * * * * * * * * * * * * * * * * * * * * * * * * * * * * * * * * * * * * ",
"* * * * * * * * * * * * * * * * * * * * * * * * * * * * * * * * * * * * * * * * * * * * * * * * * * * * * * * * * * * * * * * * ",
"* * * * * * * * * * * * * * * * * * * * * * * * * * * * * * * * * * * * * * * * * * * * * * * * * * * * * * * * * * * * * * * * ",
"* * * * * * * * * * * * * * * * * * * * * * * * * * * * * * * * * * * * * * * * * * * * * * * * * * * * * * * * * * * * * * * * ",
"* * * * * * * * * * * * * * * * * * * * * * * * * * * * * * * * * * * * * * * * * * * * * * * * * * * * * * * * * * * * * * * * ",
"* * * * * * * * * * * * * * * * * * * * * * * * * * * * * * * * * * * * * * * * * * * * * * * * * * * * * * * * * * * * * * * * ",
"* * * * * * * * * * * * * * * * * * * * * * * * * * * * * * * * * * * * * * * * * * * * * * * * * * * * * * * * * * * * * * * * ",
"* * * * * * * * * * * * * * * * * * * * * * * * * * * * * * * * * * * * * * * * * * * * * * * * * * * * * * * * * * * * * * * * ",
"* * * * * * * * * * * * * * * * * * * * * * * * * * * * * * * * * * * * * * * * * * * * * * * * * * * * * * * * * * * * * * * * ",
"* * * * * * * * * * * * * * * * * * * * * * * * * * * * * * * * * * * * * * * * * * * * * * * * * * * * * * * * * * * * * * * * ",
"* * * * * * * * * * * * * * * * * * * * * * * * * * * * * * * * * * * * * * * * * * * * * * * * * * * * * * * * * * * * * * * * ",
"* * * * * * * * * * * * * * * * * * * * * * * * * * * * * * * * * * * * * * * * * * * * * * * * * * * * * * * * * * * c E c * * ",
"* * * * * * * * * * * * * * * * * * * * * * * * * * * * * * * * * * * * * * * * * * * * * * * * * * * * * * * * * * * E gXE * * ",
"* * * * * * * * * * * * * * * * * * * * * * * * * * * * * * * * * * * * * * * * * * * * * * * * * * * * * * * * * * * k E c * * ",
"* * * * * * * * * * * * * * * * * * * * * * * * * * * * * * * * * * * * * * * * * * * * * * * * * * * * * * * * * * * * * * * * ",
"* * * * * * * * * * * * * * * * * * * * * * * * * * * * * * * * * * * * * * * * * * * * * * * * * * * * * * * * * * * * * * * * "
};
