/* XPM */
static char *floor1[] = {
/* columns rows colors chars-per-pixel */
"64 64 221 2 ",
"   c #010207",
".  c #040309",
"X  c #0B0409",
"o  c #0A090F",
"O  c #0D0507",
"+  c #13050B",
"@  c #1B060C",
"#  c #160809",
"$  c #1C080C",
"%  c #1D0411",
"&  c #22060E",
"*  c #29040D",
"=  c #24090D",
"-  c #2B0A0F",
";  c #320C0E",
":  c #3E0F0F",
">  c #35040F",
",  c #2B110C",
"<  c #34120D",
"1  c #3D110D",
"2  c #240511",
"3  c #2B0612",
"4  c #250A10",
"5  c #2C0A11",
"6  c #320714",
"7  c #340B12",
"8  c #3C0B13",
"9  c #3C0919",
"0  c #370818",
"q  c #3C1114",
"w  c #391614",
"e  c #3B211C",
"r  c #4D090F",
"t  c #47040F",
"y  c #51090F",
"u  c #54050F",
"i  c #43150D",
"p  c #4D160F",
"a  c #59160F",
"s  c #54150F",
"d  c #430411",
"f  c #490512",
"g  c #440C15",
"h  c #4B0C15",
"j  c #430C19",
"k  c #4B0D19",
"l  c #400718",
"z  c #520A12",
"x  c #5C0C12",
"c  c #540E19",
"v  c #5B0E1B",
"b  c #5B0411",
"n  c #431313",
"m  c #4C1413",
"M  c #441218",
"N  c #4B121A",
"B  c #4D1B1B",
"V  c #521314",
"C  c #5C1314",
"Z  c #541A13",
"A  c #5B1B15",
"S  c #54131B",
"D  c #5C131B",
"F  c #5C1B1C",
"G  c #57181C",
"H  c #640D14",
"J  c #6B0C14",
"K  c #690718",
"L  c #630E1B",
"P  c #6B0D18",
"I  c #700D17",
"U  c #631415",
"Y  c #6B1314",
"T  c #641B13",
"R  c #6C1B15",
"E  c #64131B",
"W  c #6B141A",
"Q  c #64191D",
"!  c #6C1B1C",
"~  c #741415",
"^  c #791416",
"/  c #741C17",
"(  c #74151B",
")  c #7B141A",
"_  c #731B1B",
"`  c #7B1C1B",
"'  c #7B1B16",
"]  c #4C2512",
"[  c #5D2413",
"{  c #592417",
"}  c #632614",
"|  c #63231A",
" . c #6C231C",
".. c #6B2516",
"X. c #7D2017",
"o. c #75231A",
"O. c #7D231A",
"+. c #7C2A1C",
"@. c #732D17",
"#. c #663819",
"$. c #7E3414",
"%. c #5D1620",
"&. c #641720",
"*. c #6C1B21",
"=. c #7A1F20",
"-. c #552223",
";. c #692921",
":. c #792621",
">. c #7D4E18",
",. c #424246",
"<. c #8D1B17",
"1. c #831C1B",
"2. c #8B1B1A",
"3. c #871618",
"4. c #921B17",
"5. c #931D19",
"6. c #A31F17",
"7. c #852117",
"8. c #8B2216",
"9. c #84221B",
"0. c #8B2319",
"q. c #842B1B",
"w. c #8C2C1A",
"e. c #892816",
"r. c #94241B",
"t. c #9C251B",
"y. c #942D1B",
"u. c #9B2C19",
"i. c #9B2C16",
"p. c #853013",
"a. c #8B341C",
"s. c #893A18",
"d. c #96311B",
"f. c #9C321B",
"g. c #933B1C",
"h. c #9C3B1C",
"j. c #9B3515",
"k. c #A42B1B",
"l. c #AB2B1C",
"z. c #AB2B18",
"x. c #B22D1C",
"c. c #B62D17",
"v. c #A2331C",
"b. c #AA3419",
"n. c #A43C1B",
"m. c #AD3C1B",
"M. c #A73916",
"N. c #B63419",
"B. c #B43C19",
"V. c #B93A1A",
"C. c #BA3618",
"Z. c #842921",
"A. c #873622",
"S. c #AD2D20",
"D. c #B22D21",
"F. c #C43B1C",
"G. c #884919",
"H. c #9E441F",
"J. c #9E4C17",
"K. c #99521C",
"L. c #A4431D",
"P. c #A44C1E",
"I. c #AD4A1F",
"U. c #A9421B",
"Y. c #B3421D",
"T. c #B8441C",
"R. c #B44A1D",
"E. c #BC481B",
"W. c #AE521D",
"Q. c #BD591C",
"!. c #B5541E",
"~. c #BE661E",
"^. c #9D4B21",
"/. c #9A512F",
"(. c #844921",
"). c #AA4B21",
"_. c #B44023",
"`. c #BA4920",
"'. c #B24B20",
"]. c #AC5420",
"[. c #B45120",
"{. c #BA5921",
"}. c #B66D3B",
"|. c #C4431A",
" X c #CB411B",
".X c #CA4A19",
"XX c #C84918",
"oX c #C35B1E",
"OX c #CB5A1D",
"+X c #C7541D",
"@X c #D55C1A",
"#X c #D74E16",
"$X c #E05A17",
"%X c #C7631F",
"&X c #DA651D",
"*X c #DE741F",
"=X c #D6731F",
"-X c #EA6D1A",
";X c #EA631B",
":X c #E9721C",
">X c #EC7B1C",
",X c #F0761C",
"<X c #F37F1D",
"1X c #C25C22",
"2X c #CD5D20",
"3X c #C46621",
"4X c #CE6620",
"5X c #CD6C21",
"6X c #D26C22",
"7X c #D06126",
"8X c #D57221",
"9X c #DB7521",
"0X c #DC7F25",
"qX c #E17B24",
"wX c #F4811D",
"eX c #FA851C",
"rX c #E58124",
"tX c #EA8223",
"yX c #FF9320",
"uX c #FFC056",
"iX c #959597",
/* pixels */
". . . . . . . . . . . . . . . . . . . . . . . . . . . . . . . . . . . . . . . . . . . . . . . . . . . . . . . . . . . . . . . . ",
". . . . . . . . . . . . . . . . . . . . . . . . . . . . . . . . . . . . . . . . . . . . . . . . . . . . . . . . . . . . . . . . ",
". . . . . . . . . . . . . . . . . . . . . . . . . . . . . . . . . . . . . . . . . . . . . . . . . . . . . . . . . . . . . . . . ",
". . . . . . . . . . . . . . . . . . . . . . . . . . . . . . . . . . . . . . . . . . . . . . . . . . . . . . . . . . . . . . . . ",
". . . . . . . . . . . . . . . . . . . . . . . . . . . . . . . . . . . . . . . . . . . . . . . . . . . . . . . . . . . . . . . . ",
". . . . . . . . . . . . . . . . . . . . . . . . . . . . . . . . . . . . . . . . . . . . . . . . . . . . . . . . . . . . . . . . ",
". . . . . . . . . . . . . . . . . . . . . . . . . . . . . . . . . . . . . . . . . . . . . . . . . . . . . . . . . . . . . . . . ",
". . . . . . . . . . . . . . . . . . . . . . . . . . . . . . . . . . . . . . . . . . . . . . . . . . . . . . . . . . . . . . . . ",
". . . . . . . . . . . . . . . . . . . . . . . . . . . . . . . . . . . . . . . . . . . . . . . . . . . . . . . . . . . . . . . . ",
". . . . . . . . . . . . . . . . . . . . . . . . . . . . . . . . . . . . . . . . . . . . . . . . . . . . . . . . . . . . . . . . ",
". . . . . . . . . . . . . . . . . . . . . . . . . . . . . . . . . . . . . . . . . . . . . . . . . . . . . . . . . . . . . . . . ",
". . . . . . . . . . . . . . . . . . . . . . . . . . . . . . . . . . . . . . . . . . . . . . . . . . . . . . . . . . . . . . . . ",
". . . . . . . . . . . . . . . . . . . . . . . . . . . . . . . . . . . . . . . . . . . . . . . . . . . . . . . . . . . . . . . . ",
". . . . . . . . . . . . . . . . . . . . . . . . . . . . . . . . . . . . . . . . . . . . . . . . . . . . . . . . . . . . . . . . ",
". . . . . . . . . . . . . . . . . . . . . . . . . . . . . . . . . . . . . . . . . # $ . . . . . . . . . . . . . . . . . . . . . ",
". . . . . . . . . . . . . . . . . . . . . . X + + . . . . X X X X + X . . . . . . n R . X . . . . . . . . . . . . . . . . . . . ",
". . . . . . . . . . . . . . . . . . . $ = = = $ $ + 2 6 9 k c c v L v g g 7 - - $ . + . + $ + X . . . . . . . . . . . . . . . . ",
". . . . . . . . . . . . . . . . . 5 g - = 5 9 9 j v E W ` ` 1.` ` ` ` 1.1.1.Z.Z.^ _ U V 7 + + = = + . . . . . . . . . . . . . . ",
". . . . . . . . . . . . . . . - g 7 = 7 g k k E _ _ _ E G S g 9 5 5 5 5 7 7 B B S Q ! 1.1.~ U > + & 7 + . . . . . . . . . . . . ",
". . . . . . . . X / 9 . . = k f 9 7 9 k k S G G S 9 5 2 $ + X X $ { #.+ % % + + + $ 4 N A.Z.` ` / m = 5 7 + . . . . . . . . . . ",
". . . . . . . . X A + . 9 E 7 : U k k S S S Q m + . . & 9 m 9.0.z.C.V.XXb.9.0.G S f 7 - }./.g ! 1.t./ = = g - . . . . . . . . . ",
". . . . . . . . . . . A c 9 R G 0 S N 5 o...# . X 9 0.N.F.V.B.f.q.q.w.d.y.B.XXd.Z A V Q _ c 2 m ' ` _ 4.g $ 9 7 . . . . . . . . ",
". . . . . . . X . . T Y 5 ' A j G 9 n @.] . + A i.|.|.f...m 7 g f c E L E _ _ _ Q F M n n A W g = a r.! :.L = 9 9 . . . . . . . ",
". . . . . . + + . R / 2 0.E j S + @.G.(.] a b.0.E.a.q > c / 9.o.H.U.H.H.s.p...R A o.=.&.N q 1 R W 2 < 0.A.v E = 9 9 . . . . . . ",
". . . . . X - . V t.f 9.` j S + } 8XF W V.&Xh.h.A 2 A a.I.[.3XI.R.R.R.R.Y.Y.g.A J.$.V _ 9.! S 7 i ` 2 $ 8._ L c $ c 5 . . . . . ",
". . . . . 5 . 7 x._ A k.9 G = 9 tXs.W XX>XR.).n $ o.[.].s.o.3.^ K P ` Y 1.^ x H f.OXQ.s.s / _ E M Z r.6 # t.E v f & f $ X . . . ",
". . . . $ - + 1.z.G r.E k n X ].8XG z.>X@Xw.n - H.Q.R x ^ Y A Y 7.r.b.Y.XXY.'.U.` 1.y.I.W.[ T 9.G G Z _ 2 > r.S E $ 7 g = . . . ",
". . . . 9 + g z.0.k y.9 N - 2 9X^.) $X>Xi. .X s.&XH H 1.U Y <.z.z.4.4.4.k.x.F.+XoX:XOXw.w.OX@.s ` G S T c + 8._ k f + k 7 X . . ",
". . . $ g + ^ x.! c o.< N . F qXA.r.wXOXP > A oXU H 1.c ~ 4.~ H x x H Y Y U ^ 4.c..X*X,XR.! 2XZ m W Q G F 6 V v.{ c $ 9 9 = . . ",
". . X 5 5 - t.z.g r.R + F . } qXE N.wXXXx & h.h.f 3.x Y ~ f f c c x H ~ ^ ^ R H ^ 6.N.oX-X!.! [.= V ! %.Q 9 > x.G v 7 5 f - . . ",
". . = 9 $ 9 z.r.9 t./ 5 *.+ } qX! C.<XXXc - 1.U H ~ c J r c c c c f f f f x k.T.H A OX|.oX,XW.q.s.$ 0.Q G k 7 k._ k c & k = . . ",
". X 5 g = c r.0.k z.R $ *.$ 7 5X! z.eX+Xu e _ R H Y r y y c c c c y y c c f u m.m.f #.:XV.&X:X+.n.- T _ G S $ w.1.l k $ f = . . ",
". X = k $ k 3.r.9 r.9.X F 5 + ].].) -X:X~ $ U 8.c Y r y y c y y y y c c y y f J `.0.& >.;X@X>X).f.Z < _ Q c X y.1.-.S $ g 5 X . ",
". X = k = k 3.r.9 9.S.< 9 F X  .0XW B.yXm.6 - <.A x x r y y r y y y y y r y c J `.i.f Z *X#XwX3Xv.R X o.&.n i T ^ S 9 $ 9 = . . ",
". . - f 5 7 ^ i.j S S.R # *.7 2 '.{.I .XwXi.f 9 Y Y H r r y c y y y c r r ~ y I 1X3.v.d.%XN.,XP.0.T . 9.%.[ d.g c k 4 5 5 X . . ",
". . = 9 9 + E t.G j 0._., 9 *.$ 7 qX!.K XX<XY.H f H Y H x c c y y r r c ~ x b 4X!.z.uX7XQ._.-Xa.1.: + 9.E 7 9 V c j $ 7 & . . . ",
". . X 7 k $ g ` r.0 G S.o.X ;.Q X n 9X{.P 0.K.W.B./ x x H f f t t y ' 5.x x OX6X3.Y d.oXU.g.8X_ ` X p 9.N G x.W c j + 5 . . . . ",
". . . = f 5 $ E _ Q 9 _ D.R X G Q X & W.9Xa.A [ R.+XE.m.b.i.i.j.n.m.<.J w.rX5X3.^ 9 ! 4X7.s.P.) g . 9.Q j 1.` v k 5 + $ . . . . ",
". . . X = f $ g c ` E 2 o.D./ - g :.w X [ 1XK.G.d.f.i.m.Y.Y.Y.T.v.r.U.%X9X1X3.A 9 ! 1Xo.{ ~.9.A . R _ j _ 0.k c k + $ X . . . . ",
". . . . . 7 g X f v _ _ 7 R D.0.n q Q S $ $ [ P.6XrX5X=X8X9X=X5XoX8X6Xm.1.H g 9 A.I.o.[ ~.o.Y . T 1.S _ 8.c g 9 5 + X . . . . . ",
". . . . . . 9 g O c G R / g @.XXz.R n N Q S & + 2 V +.I.P.G.P.U.0.1.H 0 - 4 } U.g.! $.W.o.f . T 1.j _ r.c 7 - g . . . . . . . . ",
". . . . . . . 9 9 O V v c G n } h.F.k.R Z N Q Q M 5 9 $ & Q : + & 7 < q @.a.g.q.o.U.n.g $ = T E S _ ' S g = 9 X . A - . . . . . ",
". . . . . . . . - 9 X V W k c E n [ n.|.x.! +.Q E E G S 7 m n n S S G G +.+.9.y.n.A + $ i U c k ! W j 7 = g + . = 9.+ . . . . . ",
". . . . . . . . . - g $ 9 W L c k g V Z p.m.q.k.N.t.` _ ` A f E _ 9.9.w.i.i.o.m & + 1 U c k v v j 5 $ 7 7 X . . X . . . . . . . ",
". . . . . . . . . . + 5 7 7 g E L c k 6 5 7 q } j.p.m..X|.|.|.T.M.m.e.Z 9 & X + & M ;.k G E c 9 $ $ 7 - . . . . . . . . . . . . ",
". . . . . . . . . . . . $ - & - f G E E c k j 2 2 % 5 n < , , , + X X + $ 5 7 j k c G f g k $ O = & X . . . . . . . . . . . . . ",
". . . . . . . . . . . . . . $ & $ = 7 g g v S G v v k j j 9 9 9 j j j k k c v E G g - - 5 = X $ + . . . . . . . . . . . . . . . ",
". . . . . . . . . . . . . . . . X + $ $ . $ X = 7 f f c c c G W E E L E E c 7 - $ $ 5 $ . X + . . . . . . . . . . . . . . . . . ",
". . . . . . . . . . . . . . . . . . . X . V 9 . . . . + = = 7 9 9 9 9 7 + + + + $ + . . . . . . . . . . . . . . . . . . . . . . ",
". . . . . . . . . . . . . . . . . . . . . + $ . . . . . . . . . . . . . . . X X . . . . . . . . . . . . . . . . . . . . . . . . ",
". . . . . . . . . . . . . . . . . . . . . . . . . . . . . . . . . . . . . . . . . . . . . . . . . . . . . . . . . . . . . . . . ",
". . . . . . . . . . . . . . . . . . . . . . . . . . . . . . . . . . . . . . . . . . . . . . . . . . . . . . . . . . . . . . . . ",
". . . . . . . . . . . . . . . . . . . . . . . . . . . . . . . . . . . . . . . . . . . . . . . . . . . . . . . . . . . . . . . . ",
". . . . . . . . . . . . . . . . . . . . . . . . . . . . . . . . . . . . . . . . . . . . . . . . . . . . . . . . . . . . . . . . ",
". . . . . . . . . . . . . . . . . . . . . . . . . . . . . . . . . . . . . . . . . . . . . . . . . . . . . . . . . . . . . . . . ",
". . . . . . . . . . . . . . . . . . . . . . . . . . . . . . . . . . . . . . . . . . . . . . . . . . . . . . . . . . . . . . . . ",
". . . . . . . . . . . . . . . . . . . . . . . . . . . . . . . . . . . . . . . . . . . . . . . . . . . . . . . . . . . . . . . . ",
". . . . . . . . . . . . . . . . . . . . . . . . . . . . . . . . . . . . . . . . . . . . . . . . . . . . . . . . . . . . . . . . ",
". . . . . . . . . . . . . . . . . . . . . . . . . . . . . . . . . . . . . . . . . . . . . . . . . . . . . . . . . . . . . . . . ",
". . . . . . . . . . . . . . . . . . . . . . . . . . . . . . . . . . . . . . . . . . . . . . . . . . . . . . . . . . . o ,.o . . ",
". . . . . . . . . . . . . . . . . . . . . . . . . . . . . . . . . . . . . . . . . . . . . . . . . . . . . . . . . . . ,.iX,.. . ",
". . . . . . . . . . . . . . . . . . . . . . . . . . . . . . . . . . . . . . . . . . . . . . . . . . . . . . . . . . . o ,.o . . ",
". . . . . . . . . . . . . . . . . . . . . . . . . . . . . . . . . . . . . . . . . . . . . . . . . . . . . . . . . . . . . . . . ",
". . . . . . . . . . . . . . . . . . . . . . . . . . . . . . . . . . . . . . . . . . . . . . . . . . . . . . . . . . . . . . . . "
};
