/* XPM */
static char *player[] = {
/* columns rows colors chars-per-pixel */
"64 64 166 2 ",
"   c #020201",
".  c #0A0403",
"X  c #080807",
"o  c #080908",
"O  c #414241",
"+  c #B61715",
"@  c #BB1715",
"#  c #B61815",
"$  c #BB1916",
"%  c #BD1C19",
"&  c #BE211D",
"*  c #BC2320",
"=  c #C01B17",
"-  c #C11C19",
";  c #D71715",
":  c #D61A16",
">  c #D91A17",
",  c #DC1A17",
"<  c #D91C17",
"1  c #D91D17",
"2  c #DA1C17",
"3  c #DB1C17",
"4  c #DB1D17",
"5  c #D91B17",
"6  c #D61C19",
"7  c #D81B18",
"8  c #D91A18",
"9  c #DB1A18",
"0  c #DA1B18",
"q  c #DB1B18",
"w  c #DA1B18",
"e  c #DC1B18",
"r  c #D91C18",
"t  c #DA1C18",
"y  c #DB1C18",
"u  c #DB1C19",
"i  c #DB1D19",
"p  c #D91E19",
"a  c #D91D1A",
"s  c #DA1C1A",
"d  c #DA1D1A",
"f  c #DA1D1B",
"g  c #D91E1A",
"h  c #DB1F1B",
"j  c #DC1D18",
"k  c #DC1C18",
"l  c #DC1E18",
"z  c #DE1C19",
"x  c #DB1E1C",
"c  c #DC1F1C",
"v  c #DA1C18",
"b  c #FB1B17",
"n  c #FC1B17",
"m  c #FC1A17",
"M  c #FF1A17",
"N  c #FE1917",
"B  c #FB1C17",
"V  c #FC1C17",
"C  c #FD1C17",
"Z  c #FD1D17",
"A  c #FE1C17",
"S  c #FD1C17",
"D  c #FB1A18",
"F  c #FC1B18",
"G  c #FD1B18",
"H  c #FE1B19",
"J  c #FF1B19",
"K  c #FB1C18",
"L  c #FA1D18",
"P  c #FC1C18",
"I  c #FD1C18",
"U  c #FD1D18",
"Y  c #FC1C19",
"T  c #FD1C19",
"R  c #FC1D19",
"E  c #FD1D19",
"W  c #FC1D18",
"Q  c #FE1C18",
"!  c #FF1C18",
"~  c #FE1D18",
"^  c #FE1C19",
"/  c #FF1C19",
"(  c #FE1D19",
")  c #FF1D19",
"_  c #FF1D18",
"`  c #FD1E19",
"'  c #FE1E19",
"]  c #FF1E19",
"[  c #FE1E18",
"{  c #FD1D1A",
"}  c #FE1D1A",
"|  c #FF1D1A",
" . c #FD1E1A",
".. c #FF1F1B",
"X. c #FD1D18",
"o. c #C0211F",
"O. c #DA201B",
"+. c #DC211C",
"@. c #DA201B",
"#. c #1C3292",
"$. c #253781",
"%. c #2A3783",
"&. c #263985",
"*. c #293A84",
"=. c #273988",
"-. c #343F84",
";. c #283D96",
":. c #293E98",
">. c #344285",
",. c #394387",
"<. c #344489",
"1. c #2D429A",
"2. c #364696",
"3. c #364798",
"4. c #384799",
"5. c #364A9B",
"6. c #394A9C",
"7. c #2B47AE",
"8. c #2E48B0",
"9. c #3C53B5",
"0. c #6875A9",
"q. c #6F79AE",
"w. c #6E7BB1",
"e. c #727FB4",
"r. c #7480B6",
"t. c #7384C7",
"y. c #7D8DCC",
"u. c #949595",
"i. c #C5BFBE",
"p. c #C6C1BF",
"a. c #8190D0",
"s. c #9EA8C9",
"d. c #A3ABC7",
"f. c #A3ACC9",
"g. c #B8C3E6",
"h. c #BAC4E8",
"j. c #C6C4C3",
"k. c #CAC2C1",
"l. c #CCC3C2",
"z. c #CCC4C3",
"x. c #C9C7C5",
"c. c #CAC7C5",
"v. c #C9C4C2",
"b. c #CBC8C7",
"n. c #C8C8C5",
"m. c #C9C9C8",
"M. c #D0CFC5",
"N. c #D1D0C7",
"B. c #E3DFDD",
"V. c #E2DFDE",
"C. c #E3E1DF",
"Z. c #E4E1DF",
"A. c #E4E0DE",
"S. c #E5E2DF",
"D. c #E4E1DD",
"F. c #E3E0DE",
"G. c #D2D9F0",
"H. c #E4E2E0",
"J. c #E5E2E1",
"K. c #E5E6E3",
"L. c #E5E6E4",
"P. c #E4E3E2",
"I. c #EEEDE5",
"U. c #F3F1E9",
"Y. c white",
"T. c white",
/* pixels */
"                                                                                                                                ",
"                                                                                                                                ",
"                                                                                                                                ",
"                                                                                                                                ",
"                                                                                                                                ",
"                                                                                                                                ",
"                                                                                                                                ",
"                                                                                                                                ",
"                                                # : : $ $ : : $ $ : : $ $ : : #                                                 ",
"                                                : ! B : : B ! > > B B > > ! ! :                                                 ",
"                                                : ! B > > B ! > > ! ! > > ! ! :                                                 ",
"                                              . $ > > = = > : = = : > = = : > $ .                                               ",
"                                # : : $ $ : : $ $ 0 > @ $ > > = = > > $ @ > > @ $ : : $ $ : : +                                 ",
"                                : ! ! > > ! ! > > B B > > B B : : ! ! > > B ! > > ! ! > > ! ! :                                 ",
"                                : ! ! > 0 ! ! > 0 ! ! 0 > B ! > > ! ! > > ! ! 0 0 ! ! > > ! ! :                                 ",
"                              . $ > 0 = % > 0 $ $ 0 0 $ % > : = = : 0 = $ 0 0 $ $ 0 > $ $ 0 0 $ .                               ",
"                        # : : $ $ : > $ $ : 0 = $ > > $ % 0 > = = > > $ % 0 > $ $ > > $ $ > > = $ : : +                         ",
"                        : ! ! > > ! B > > ! ! > 0 B B > > ! ! > > ! ! > 0 ! ! > > ! ! > 0 ! ! 0 > ! ! :                         ",
"                        : ! ! > > ! ! > > ! ! > > ! ! > > ! ! > 0 ! ! > > ! ! 0 > ! ! > : ! ! > > ! ! :                         ",
"                        $ > > = $ > > = $ > 0 = % 0 0 % $ > 0 $ $ 0 > $ $ > > $ $ > > = = 0 0 = = > > $                         ",
"                        $ > > $ $ > > $ $ > > = k.Z.Z.k.% > 0 $ $ 0 > $ $ > > $ $ 0 ; = k.Z.Z.k.& : 0 $                         ",
"                        : ! ! > > ! ! > > ! ! 0 Z.Y.Y.L.+.B ! 0 0 B ! > 0 ! ! > 0 ! ! 0 Z.Y.Y.L.+.! ! :                         ",
"                        : ! ! 0 0 ! ! > > ! B 0 Z.Y.Y.Z.0 B ! > > ! ! 0 > ! ! > > ! ! 0 Z.Y.Y.Z.0 ! ! :                         ",
"                        $ 0 > $ % > > % % 0 0 & k.L.L.b.& 0 0 % $ 0 0 $ $ > 0 $ % 0 0 o.k.L.L.b.& 0 0 %                         ",
"                        $ > > @ $ 0 > % p.L.Z.n.k.L.L.n.n.V.Z.k.= > 0 $ $ 0 > = k.L.Z.k.n.L.L.n.n.V.L.p.                        ",
"                        : ! ! > > ! B 0 Z.Y.Y.L.L.Y.Y.I.I.Y.Y.I.0 B B > 0 ! ! 0 Z.Y.Y.Z.I.Y.Y.I.I.Y.Y.I.X                       ",
"                        : ! B > 0 ! B 0 V.Y.Y.L.I.G.t.r.w.y.y.q.0 B ! > > ! B 0 V.Y.Y.L.r.y.y.r.q.y.a.0.                        ",
"                      . $ > > $ $ 0 > % n.L.L.n.N.s.#.*.&.:.:.%.% > 0 $ % 0 0 o.k.L.L.n.*.:.:.$.=.;.;.&.                        ",
"                # : : % = : > = $ > > % n.L.L.n.N.f.1.>.>.6.6.>.% > > % p.L.Z.k.b.L.L.n.<.6.6.<.<.6.6.<.% : : #                 ",
"                : ! ! > : ! ! > > ! B 0 Z.Y.Y.L.U.g.8.6.6.9.9.6.0 ! B 0 Z.Y.Y.L.L.Y.Y.L.6.9.9.6.2.9.9.2.: ! ! :                 ",
"                : ! ! : > ! ! : > ! ! 0 Z.Y.Y.L.U.h.7.6.6.9.9.4.6 ! B 0 Z.Y.Y.L.L.Y.Y.L.6.9.9.3.6.9.9.3.6 ! ! :                 ",
"                $ > > = = : > = = 0 > = k.L.L.n.M.f.1.>.-.6.6.-.% > > % p.L.Z.n.n.L.L.n.<.6.6.<.<.4.2.,.& : > $                 ",
"                $ > > = $ : : = = : : $ % +.0 & n.L.L.n.% 6 6 % $ > > $ % +.0 % n.L.L.m.n.Z.L.n.* : 6 % % : > $                 ",
"                : ! ! : : ! ! : : ! ! : : B B : Z.Y.Y.L.+.B B > > ! B > > B B > Z.Y.Y.L.L.Y.Y.Z.0 B ! > : ! ! :                 ",
"                : ! ! > > ! ! > : ! ! 0 0 ! ! 0 V.Y.Y.L.+.B ! 0 > ! ! > 0 ! ! +.Z.Y.Y.L.L.Y.Y.L.6 ! ! > 0 ! ! :                 ",
"                $ > > = = > > $ % > 0 $ $ 0 > % p.L.L.k.% > 0 $ $ > > $ % 0 > % i.L.Z.n.n.Z.L.k.& > > = = > 0 $                 ",
"                $ > 0 $ $ 0 > % $ > > $ $ 0 > $ % 0 0 % $ 0 0 $ $ 0 > $ $ > > $ % 0 +.% % 0 0 % % > > $ $ 0 0 $                 ",
"                : ! ! > 0 ! ! 0 > ! B 0 0 B ! > : B B > 0 ! ! > > ! ! > 0 ! ! : : B B > > B B > : ! ! > 0 B ! :                 ",
"                : ! ! 0 0 ! ! 0 0 ! ! 0 0 B B 0 0 ! ! 0 0 ! ! 0 0 ! ! 0 0 ! ! > 0 ! ! 0 0 ! ! 0 0 ! ! 0 0 B ! >                 ",
"                # 0 0 $ $ 0 0 $ $ 0 0 $ $ > > = $ > > % $ 0 0 $ $ 0 0 $ $ 0 > % % > 0 $ $ 0 > $ % > 0 % $ 0 0 +                 ",
"                # 0 > $ $ > 0 $ $ 0 > % % > 0 $ $ 0 0 $ $ 0 0 $ $ 0 0 $ $ > > $ $ 0 > % % > 0 $ $ 0 0 $ $ 0 0 +                 ",
"                : B ! 0 0 B ! > > ! ! : : ! ! > 0 ! ! > 0 ! B 0 0 B ! 0 > ! ! : 6 ! ! > 0 ! ! 0 0 B B 0 0 B ! >                 ",
"                : ! ! 0 0 ! ! : : ! ! : 0 ! B 0 0 ! ! 0 0 ! ! : : ! ! 0 0 ! ! 0 0 ! ! 0 : ! ! 0 > ! ! 0 0 B ! >                 ",
"                # 0 0 $ $ 0 > $ % > > = % : 0 $ $ 0 > $ $ 0 > $ $ 0 0 $ $ 0 > $ % 0 : = = : 0 % $ 0 0 $ + 0 0 +                 ",
"                # 0 > $ % : : % % : > $ $ : 0 $ $ > > $ $ > : % % : > % $ > > $ $ 0 : % % : > % $ > > $ # 0 0 +                 ",
"                : B B 0 0 B ! > : ! B : : ! B > > B B 0 > ! ! > : ! ! 0 0 ! ! 0 > ! ! : : ! ! : 0 ! B 0 0 B ! :                 ",
"                : ! ! : : ! ! : > ! ! > 0 ! B > > ! ! 0 > ! ! > : ! ! : 6 ! ! > 0 ! ! 0 > ! ! > 0 ! ! > 0 B ! :                 ",
"                # 0 0 @ $ 0 > $ $ : : $ $ > 0 $ $ > > $ $ : : $ % : : $ $ > 0 $ $ 0 > $ $ : : $ $ > 0 $ + 0 0 #                 ",
"                # 0 : $ = : > $ .     . $ > > % $ > > # .     . .     . # 0 0 $ % 0 > $ .     . # 0 0 $ $ > 0 #                 ",
"                : B B 0 > ! ! :         : ! ! > 0 ! ! :                 : ! ! 0 0 ! ! :         : ! B 0 0 B B >                 ",
"                : ! ! : : ! ! :         : ! ! > 6 ! ! :                 : ! ! : : ! ! :         : ! ! > : ! ! :                 ",
"                $ 0 > % $ : > $         # > : $ $ 0 0 $                 $ 0 0 $ $ : > $         # > : $ $ 0 0 $                 ",
"                % 0 > % .   .                 . % > > %                 % > : $ .   .             .   . % : 0 %                 ",
"                : ! ! :                         : ! ! :                 : ! ! :                         : ! ! :                 ",
"                : ! ! :                         : ! ! :                 : ! ! :                         : ! ! :                 ",
"                $ : > $                         # : : $                 # : 0 $                         $ : : $                 ",
"                                                                                                        .                       ",
"                                                                                                                                ",
"                                                                                                                                ",
"                                                                                                                      o O o     ",
"                                                                                                                      O u.O     ",
"                                                                                                                      o O o     ",
"                                                                                                                                ",
"                                                                                                                                "
};
