/* XPM */
static char *wall1[] = {
/* columns rows colors chars-per-pixel */
"64 64 161 2 ",
"   c #010201",
".  c #020609",
"X  c #080A08",
"o  c #080F14",
"O  c #091216",
"+  c #0A1318",
"@  c #031623",
"#  c #031826",
"$  c #091A23",
"%  c #051B2A",
"&  c #081F2E",
"*  c #08212F",
"=  c #072131",
"-  c #092233",
";  c #142A37",
":  c #224357",
">  c #22495F",
",  c #1C4965",
"<  c #1B4D6C",
"1  c #1D506E",
"2  c #1F5373",
"3  c #244C63",
"4  c #285068",
"5  c #225676",
"6  c #235877",
"7  c #235778",
"8  c #255B7C",
"9  c #255B7D",
"0  c #265A7C",
"q  c #265B7C",
"w  c #265B7D",
"e  c #275B7D",
"r  c #255C7C",
"t  c #265C7C",
"y  c #275C7C",
"u  c #275D7C",
"i  c #265C7D",
"p  c #275C7D",
"a  c #265D7D",
"s  c #275D7D",
"d  c #275E7D",
"f  c #255D7E",
"g  c #265C7E",
"h  c #275C7E",
"j  c #265D7E",
"k  c #275D7E",
"l  c #275C7F",
"z  c #275D7F",
"x  c #275E7E",
"c  c #255B7C",
"v  c #285C7D",
"b  c #285D7D",
"n  c #295D7D",
"m  c #285C7E",
"M  c #285D7E",
"N  c #295D7E",
"B  c #285D7F",
"V  c #295D7F",
"C  c #285E7E",
"Z  c #295E7E",
"A  c #285F7E",
"S  c #295F7E",
"D  c #285E7F",
"F  c #295E7F",
"G  c #285F7F",
"H  c #295F7F",
"J  c #2A5F7F",
"K  c #285E7F",
"L  c #29607F",
"P  c #2A607F",
"I  c #29607F",
"U  c #414241",
"Y  c #275E80",
"T  c #285F80",
"R  c #295F80",
"E  c #285E81",
"W  c #295F81",
"Q  c #2A5E80",
"!  c #2B5F80",
"~  c #2A5F81",
"^  c #295F82",
"/  c #2A5F82",
"(  c #2B5F82",
")  c #295F80",
"_  c #296080",
"`  c #286081",
"'  c #2A6080",
"]  c #2B6180",
"[  c #2A6081",
"{  c #2B6081",
"}  c #2A6181",
"|  c #296082",
" . c #2A6082",
".. c #2B6082",
"X. c #2A6182",
"o. c #2B6182",
"O. c #2A6083",
"+. c #2B6083",
"@. c #2B6183",
"#. c #2C6281",
"$. c #2C6183",
"%. c #2C6283",
"&. c #2D6283",
"*. c #2C6383",
"=. c #2C6483",
"-. c #2B6284",
";. c #2A6386",
":. c #2B6387",
">. c #2D6284",
",. c #2E6384",
"<. c #2D6484",
"1. c #2E6484",
"2. c #2E6485",
"3. c #2E6585",
"4. c #2F6585",
"5. c #2E6486",
"6. c #2A6183",
"7. c #2C6588",
"8. c #2F6688",
"9. c #2E6689",
"0. c #2F6689",
"q. c #2D668A",
"w. c #2C678A",
"e. c #2D678A",
"r. c #2E668A",
"t. c #2F668A",
"y. c #2F678A",
"u. c #2B668A",
"i. c #2E688A",
"p. c #2F698B",
"a. c #2E6A8B",
"s. c #2E698D",
"d. c #306689",
"f. c #31678A",
"g. c #31688B",
"h. c #30698B",
"j. c #31698B",
"k. c #30688C",
"l. c #31688C",
"z. c #30698C",
"x. c #31698C",
"c. c #30688D",
"v. c #32698C",
"b. c #316A8C",
"n. c #316A8D",
"m. c #316A8E",
"M. c #316B8F",
"N. c #326A8E",
"B. c #326B8E",
"V. c #346B8E",
"C. c #326C8F",
"Z. c #346C8E",
"A. c #346C8F",
"S. c #336C91",
"D. c #336D91",
"F. c #346D91",
"G. c #346E90",
"H. c #346E92",
"J. c #346E93",
"K. c #337093",
"L. c #949595",
/* pixels */
"                                                                                                                                ",
"                                                                                                                                ",
"                                                                                                                                ",
"                                                                                                                                ",
"                                                                                                                                ",
"                                                                                                                                ",
"                                                                                                                                ",
"                                                                                                                                ",
"                                                                                                                                ",
"                                                                                                                                ",
"                                                                                                                                ",
"                        O O O + O O O O + O O O O + O O + O O O O O o O O o O O O O + O O O O O + O O O                         ",
"                      $ &.g.d.g.g.g.t.t.g.t.t.D.g.D.D.g.g.D.g.t.g.g.&.&.t.g.g.g.g.g.D.D.g.g.g.g.g.t.g.g.;                       ",
"                      = , &.~ f f J f 5 5 f 5 f f f ~ &.f f ~ f f f 7 5 5 f 5 5 f 5 6 f f f f f f f 6 &.3                       ",
"                      - 5 f J &.f f 5 5 5 f f 5 f &.&.&.f f f ~ f 5 5 f 6 6 J f f f f J J f f f f f f t.3                       ",
"                      & f f f ~ J f 5 5 7 7 5 f f f f f ~ &.~ f ~ f 5 5 f J J J f f J J f 5 f J f J J t.>                       ",
"                      & 5 &.~ J f f 5 5 5 5 f f f f f f J J f f f f 2 5 J J &.f f f ~ &.f 5 f f f &.J t.3                       ",
"                      - 5 &.&.f 5 f f 6 5 5 5 f f f f f J 5 5 J 2 2 5 5 J J L J f 5 5 &.~ 7 f f f &.&.s.3                       ",
"                      - f f f f f f f 6 5 5 f 5 f f f f f f f f f f f f &.&.&.&.&.f f J f f f f J &.&.s.3                       ",
"                      - f J f f f f 5 5 5 5 6 5 5 7 f f f &.f J f ~ &.f &.&.&.J f J J f &.&.f &.&.&.f t.3                       ",
"                      - 5 ~ f f f f 5 5 5 5 5 5 7 f f J &.J &.J 5 &.J f J d.J 5 5 5 5 f &.&.&.&.&.&.J t.3                       ",
"                      - 5 J ~ J f f 5 5 5 5 5 f f f J J f f f f f ~ f f &.&.f 5 5 5 f J f ~ &.&.f J J &.3                       ",
"                      - 5 J &.L f f 5 6 5 5 f f 2 5 f f f f J &.f f f f &.&.f 6 5 f &.&.&.&.&.&.~ f 6 &.3                       ",
"                      - f L f f 5 5 6 5 5 5 5 f 2 2 5 f f f f J &.&.&.&.&.&.5 6 f f f &.&.&.&.&.&.f f &.3                       ",
"                      - 5 f f 5 5 f 5 5 f 5 5 f 5 5 f f J f f f &.~ &.&.&.f f f 5 f ~ &.&.&.&.f &.J L t.>                       ",
"                      - 5 f J f 5 f 5 5 5 f f 5 f f f f f f J J Y ~ ~ &.~ f f f 5 f &.&.&.~ J f J &.J s.3                       ",
"                      & 5 f f 5 5 5 f 5 6 f f f f f f f f J &.~ f f ~ &.f f f f f f f f f f J &.f &.f s.3                       ",
"                      = 5 f f f 5 f 5 6 f f f f f f J &.f f f &.&.f f ~ f f f f f f f &.f f &.&.~ f f s.3                       ",
"                      - 5 f f f f f f f 5 J J f f f ~ &.&.~ &.&.&.~ f ~ f f f f f f f f J f J f J f f &.3                       ",
"                      & f J f f f f 5 f f f f f f f &.&.~ J f &.&.~ ~ f f f f f 5 7 f ~ f f f 5 f f 5 &.3                       ",
"                      - f J J J J f 5 J &.f f f 5 f ~ f f ~ &.&.&.~ ~ f f 5 5 f f 5 5 &.f f f f f f f t.3                       ",
"                      - f J &.J f f f f f ~ f f 5 J f f f &.&.&.~ ~ J J f f 5 5 f f f J f f f f &.f f s.3                       ",
"                      * 5 &.&.f f f f f f J f f f J f f f Y Y &.` &.~ ~ ~ &.5 7 f J f f f f f Y &.&.f t.3                       ",
"                      - f J f ~ f f f f J f f f f J &.&.~ ~ ~ Y f f f f &.&.f f J &.~ J f f ~ f f &.f t.3                       ",
"                      - f f f ~ f f f f f f f J f f J &.&.&.&.&.f f f f ~ ~ f f J f ~ f &.~ f f &.&.~ s.3                       ",
"                      - 5 ~ J f J f f f f f 7 f f f f ~ ~ &.&.f J f f f f J J f f f f f f f f f &.&.f t.3                       ",
"                      = f ~ f J f J J J f f f f f f f f J &.&.~ f f f J f f f f f f f f f f f f f ~ f s.3                       ",
"                      = f &.f f 5 5 &.J f f f f f f J J f &.&.&.f &.J f J f &.f f f f f f f J f &.f f s.3                       ",
"                      = 5 &.~ f f f f J J f f f f J J J f &.&.~ f J J J J f f f f J 7 f f f f ~ &.&.f t.3                       ",
"                      - f f ~ ~ f &.J f f f f J J &.f ~ ~ &.&.f f J f J &.f f f f f f J f f ~ &.&.&.J s.3                       ",
"                      & 7 ~ f f f J &.f f f f f f ~ Y ~ &.~ &.~ f f f J &.f f f f 5 f J f ~ f J &.~ &.D.>                       ",
"                      = 5 J f f f f f J f f f f f f ~ f Y f ~ ~ J 5 J f ~ f f f f ~ f J ~ f f f f J f t.3                       ",
"                      = f f f f ~ &.f ~ &.f f f f f f f ~ &.f f f f f f &.~ f f J f f ~ ~ f f ~ ~ f f &.3                       ",
"                      = 7 f f &.~ J &.&.&.&.f f f ~ ~ f ~ Y f f J f f &.&.~ ~ f f f ~ &.~ J f f ~ f f t.3                       ",
"                      & 5 f J &.f 7 f f ~ f ~ ~ f J ~ f J ~ ~ &.J 7 f J &.f f f f J J J &.f f f f f f &.3                       ",
"                      = 5 f &.&.f f f 5 f J &.f f f f f f &.J J f f f f &.J f f f J &.f f f f f f Y f &.>                       ",
"                      & f &.&.J f f f f f J f f ~ ~ f f f f f f f J f f f J f 5 f J f 7 f 5 f f f f f s.3                       ",
"                      & 5 &.f Y f f f f f f f f f ~ f f f ~ f f 7 f f f f f f f f f f J J f f f ~ f f s.3                       ",
"                      - 5 5 ~ &.f 7 f f f 5 f f f f f f f f f J 7 7 ~ f 7 f f ~ f 7 J f f f f f ~ ~ f t.3                       ",
"                      - 5 7 f f f J f f 6 f f f f f f f f f f J 7 5 J f 5 f f f f f f f ~ &.f f f f J t.>                       ",
"                      - f &.5 f ~ &.&.f J J f J J J f f f ~ J f f f f f f f ~ f ~ f f &.&.&.J f &.&.J s.4                       ",
"                      = 2 < 2 2 2 5 5 5 7 5 5 5 7 5 2 6 5 5 f 5 1 2 < < 2 < < 2 2 1 2 f 5 2 5 5 5 5 5 f :                       ",
"                      . # # # # # # # & & # # # # # # # & # & & # # # # # # # # # # & # # # # # # # & #                         ",
"                                                                                                                                ",
"                                                                                                                                ",
"                                                                                                                                ",
"                                                                                                                                ",
"                                                                                                                                ",
"                                                                                                                                ",
"                                                                                                                      X U X     ",
"                                                                                                                      U L.U     ",
"                                                                                                                      X U X     ",
"                                                                                                                                ",
"                                                                                                                                "
};
